PathFileType	4	(X/Y/Z)	 control3min.trc
DataRate	CameraRate	NumFrames	NumMarkers	Units	OrigDataRate	OrigDataStartFrame	OrigNumFrames
200	200	8	39	m	200	251	1000
Frame#	Time	C7			LSH			RSH			MAN			RASI			LASI			HIPR			HIPL			RPSI			LPSI			COX			RTHI1			RTHI2			RTHI3			RTHI4			RLKN			RMKN			RSHA1			RSHA2			RSHA3			RSHA4			RHEEL			RMET5			RMET1			RTOE			LTHI1			LTHI2			LTHI3			LTHI4			LLKN			LMKN			LSHA1			LSHA2			LSHA3			LSHA4			LHEEL			LMET5			LMET1			LTOE			
		X1	Y1	Z1	X2	Y2	Z2	X3	Y3	Z3	X4	Y4	Z4	X5	Y5	Z5	X6	Y6	Z6	X7	Y7	Z7	X8	Y8	Z8	X9	Y9	Z9	X10	Y10	Z10	X11	Y11	Z11	X12	Y12	Z12	X13	Y13	Z13	X14	Y14	Z14	X15	Y15	Z15	X16	Y16	Z16	X17	Y17	Z17	X18	Y18	Z18	X19	Y19	Z19	X20	Y20	Z20	X21	Y21	Z21	X22	Y22	Z22	X23	Y23	Z23	X24	Y24	Z24	X25	Y25	Z25	X26	Y26	Z26	X27	Y27	Z27	X28	Y28	Z28	X29	Y29	Z29	X30	Y30	Z30	X31	Y31	Z31	X32	Y32	Z32	X33	Y33	Z33	X34	Y34	Z34	X35	Y35	Z35	X36	Y36	Z36	X37	Y37	Z37	X38	Y38	Z38	X39	Y39	Z39	
251	1.2550	-0.270968	1.585026	-0.562073	-0.230827	1.569853	-0.743179	-0.246401	1.579638	-0.387617	-0.123679	1.525441	-0.564924	-0.137597	1.073938	-0.435576	-0.128506	1.075594	-0.683038	-0.202707	1.139022	-0.392914	-0.198507	1.146964	-0.724157	-0.304456	1.133492	-0.526379	-0.301853	1.133613	-0.589630	-0.301912	1.134643	-0.559976	-0.214783	0.848230	-0.355890	-0.207965	0.787154	-0.355453	-0.137094	0.803514	-0.355452	-0.151009	0.861518	-0.356326	-0.227489	0.580050	-0.379708	-0.192471	0.560756	-0.508250	-0.304514	0.341369	-0.380180	-0.319664	0.304428	-0.396159	-0.262037	0.285691	-0.387386	-0.250514	0.322999	-0.376325	-0.366456	0.181583	-0.455910	-0.240494	0.072527	-0.376451	-0.184766	0.079373	-0.439449	-0.159651	0.064547	-0.429972	-0.259727	0.830075	-0.742018	-0.248371	0.771679	-0.738213	-0.180546	0.785620	-0.761292	-0.200667	0.844650	-0.762906	-0.244928	0.561615	-0.731476	-0.220196	0.539968	-0.610285	-0.328314	0.322844	-0.723464	-0.337048	0.284059	-0.715506	-0.278007	0.273059	-0.731179	-0.277083	0.316662	-0.738843	-0.378578	0.172909	-0.667355	-0.248019	0.062087	-0.733876	-0.198462	0.076822	-0.674111	-0.175250	0.062909	-0.681707	
252	1.2600	-0.270906	1.587486	-0.562026	-0.230485	1.572427	-0.742963	-0.246085	1.582332	-0.387636	-0.123576	1.527869	-0.564917	-0.137559	1.076389	-0.435644	-0.128537	1.078059	-0.683026	-0.202765	1.141493	-0.392904	-0.198702	1.149390	-0.724183	-0.304350	1.136444	-0.526475	-0.301741	1.136575	-0.589711	-0.301832	1.137644	-0.560077	-0.214419	0.850615	-0.355914	-0.207508	0.789561	-0.355504	-0.136659	0.805990	-0.355934	-0.150645	0.863998	-0.356742	-0.227035	0.582430	-0.379694	-0.191968	0.563138	-0.508264	-0.304548	0.344013	-0.380527	-0.319744	0.307137	-0.396427	-0.262136	0.288248	-0.387507	-0.250558	0.325552	-0.376495	-0.366340	0.183681	-0.456643	-0.240561	0.075814	-0.375241	-0.184192	0.082469	-0.437627	-0.159083	0.067635	-0.427861	-0.259574	0.832560	-0.742163	-0.248352	0.774144	-0.738189	-0.180411	0.787922	-0.761043	-0.200388	0.846942	-0.762824	-0.245012	0.564014	-0.731284	-0.220325	0.542511	-0.610095	-0.328064	0.325111	-0.723097	-0.336741	0.286472	-0.715240	-0.277672	0.275499	-0.731024	-0.276861	0.319081	-0.738645	-0.377565	0.174385	-0.666309	-0.246642	0.065563	-0.735616	-0.196326	0.080124	-0.676555	-0.173061	0.066359	-0.684527	
253	1.2650	-0.270821	1.589723	-0.561993	-0.230133	1.574709	-0.742818	-0.245794	1.584707	-0.387618	-0.123460	1.530041	-0.564916	-0.137579	1.078568	-0.435689	-0.128641	1.080193	-0.682968	-0.202944	1.143580	-0.392850	-0.198926	1.151350	-0.724202	-0.304328	1.139055	-0.526590	-0.301722	1.139183	-0.589822	-0.301844	1.140275	-0.560199	-0.213970	0.852754	-0.355902	-0.206945	0.791734	-0.355524	-0.136128	0.808241	-0.356453	-0.150202	0.866257	-0.357184	-0.226537	0.584579	-0.379690	-0.191359	0.565295	-0.508252	-0.304618	0.346528	-0.380987	-0.319824	0.309701	-0.396731	-0.262255	0.290653	-0.387617	-0.250611	0.327936	-0.376648	-0.366265	0.185643	-0.457303	-0.240625	0.078885	-0.374262	-0.183735	0.085303	-0.436078	-0.158635	0.070447	-0.426013	-0.259286	0.834712	-0.742446	-0.248167	0.776285	-0.738284	-0.180093	0.789941	-0.760845	-0.199958	0.848920	-0.762829	-0.245051	0.566209	-0.731134	-0.220267	0.544912	-0.609948	-0.327888	0.327243	-0.722654	-0.336428	0.288649	-0.714592	-0.277424	0.277805	-0.730874	-0.276723	0.321377	-0.738451	-0.376645	0.175794	-0.665304	-0.245511	0.068721	-0.737073	-0.194445	0.083192	-0.678716	-0.171151	0.069555	-0.687049	
254	1.2700	-0.270715	1.591747	-0.561970	-0.229775	1.576697	-0.742747	-0.245524	1.586773	-0.387561	-0.123336	1.531974	-0.564919	-0.137658	1.080482	-0.435701	-0.128802	1.082018	-0.682872	-0.203226	1.145310	-0.392763	-0.199157	1.152890	-0.724211	-0.304381	1.141306	-0.526715	-0.301786	1.141435	-0.589958	-0.301940	1.142554	-0.560335	-0.213451	0.854666	-0.355865	-0.206308	0.793677	-0.355524	-0.135531	0.810268	-0.357010	-0.149704	0.868294	-0.357652	-0.226030	0.586504	-0.379713	-0.190698	0.567232	-0.508228	-0.304707	0.348878	-0.381501	-0.319890	0.312067	-0.397048	-0.262386	0.292880	-0.387726	-0.250672	0.330153	-0.376778	-0.366230	0.187459	-0.457854	-0.240661	0.081667	-0.373480	-0.183370	0.087884	-0.434824	-0.158274	0.072989	-0.424519	-0.258876	0.836546	-0.742849	-0.247821	0.778120	-0.738494	-0.179608	0.791710	-0.760696	-0.199388	0.850632	-0.762881	-0.245089	0.568211	-0.731017	-0.220057	0.547148	-0.609851	-0.327770	0.329229	-0.722145	-0.336115	0.290841	-0.714272	-0.277250	0.279964	-0.730739	-0.276692	0.323542	-0.738284	-0.375831	0.177133	-0.664388	-0.244572	0.071596	-0.738285	-0.192840	0.086005	-0.680501	-0.169518	0.072519	-0.689192	
255	1.2750	-0.270587	1.593558	-0.561960	-0.229420	1.578395	-0.742747	-0.245275	1.588537	-0.387461	-0.123211	1.533672	-0.564926	-0.137789	1.082135	-0.435673	-0.129002	1.083558	-0.682747	-0.203599	1.146712	-0.392654	-0.199386	1.154068	-0.724213	-0.304503	1.143203	-0.526845	-0.301926	1.143330	-0.590109	-0.302095	1.144462	-0.560476	-0.212898	0.856357	-0.355814	-0.205630	0.795399	-0.355516	-0.134892	0.812109	-0.357608	-0.149170	0.870105	-0.358144	-0.225532	0.588211	-0.379765	-0.190031	0.568958	-0.508202	-0.304793	0.351019	-0.381992	-0.319945	0.314231	-0.397357	-0.262521	0.294914	-0.387823	-0.250737	0.332169	-0.376894	-0.366201	0.189090	-0.458266	-0.240652	0.084043	-0.372811	-0.183063	0.090207	-0.433884	-0.157956	0.075299	-0.423412	-0.258364	0.838096	-0.743357	-0.247339	0.779672	-0.738801	-0.178975	0.793242	-0.760570	-0.198708	0.852098	-0.762972	-0.245145	0.570018	-0.730930	-0.219734	0.549195	-0.609803	-0.327719	0.331056	-0.721589	-0.335832	0.292821	-0.713786	-0.277149	0.281954	-0.730623	-0.276747	0.325536	-0.738124	-0.375131	0.178386	-0.663603	-0.243732	0.074197	-0.739233	-0.191488	0.088597	-0.681919	-0.168151	0.075238	-0.690885	
256	1.2800	-0.270438	1.595156	-0.561959	-0.229070	1.579816	-0.742815	-0.245043	1.590003	-0.387313	-0.123086	1.535141	-0.564937	-0.137963	1.083533	-0.435604	-0.129229	1.084839	-0.682603	-0.204040	1.147817	-0.392539	-0.199597	1.154944	-0.724210	-0.304686	1.144751	-0.526974	-0.302131	1.144879	-0.590265	-0.302281	1.146003	-0.560604	-0.212328	0.857833	-0.355755	-0.204937	0.796903	-0.355510	-0.134240	0.813724	-0.358229	-0.148619	0.871691	-0.358651	-0.225057	0.589710	-0.379838	-0.189401	0.570489	-0.508181	-0.304858	0.352945	-0.382416	-0.319994	0.316164	-0.397645	-0.262651	0.296733	-0.387904	-0.250801	0.333972	-0.376987	-0.366184	0.190497	-0.458526	-0.240555	0.086177	-0.372383	-0.182775	0.092306	-0.433293	-0.157631	0.077382	-0.422704	-0.257774	0.839385	-0.743942	-0.246745	0.780964	-0.739190	-0.178223	0.794563	-0.760455	-0.197943	0.853374	-0.763101	-0.245212	0.571629	-0.730867	-0.219332	0.551036	-0.609801	-0.327738	0.332703	-0.721004	-0.335498	0.294740	-0.712753	-0.277133	0.283751	-0.730524	-0.276884	0.327336	-0.737971	-0.374572	0.179521	-0.662982	-0.242911	0.076590	-0.739964	-0.190342	0.091002	-0.682965	-0.166962	0.077784	-0.692151	
257	1.2850	-0.270272	1.596536	-0.561966	-0.228726	1.580958	-0.742945	-0.244823	1.591178	-0.387118	-0.122966	1.536382	-0.564954	-0.138170	1.084678	-0.435499	-0.129472	1.085880	-0.682450	-0.204526	1.148650	-0.392428	-0.199809	1.155576	-0.724209	-0.304923	1.145958	-0.527094	-0.302393	1.146095	-0.590417	-0.302512	1.147195	-0.560716	-0.211749	0.859097	-0.355707	-0.204251	0.798207	-0.355512	-0.133598	0.815127	-0.358855	-0.148069	0.873061	-0.359163	-0.224608	0.590995	-0.379923	-0.188846	0.571828	-0.508169	-0.304889	0.354643	-0.382742	-0.320038	0.317843	-0.397902	-0.262770	0.298311	-0.387969	-0.250854	0.335540	-0.377059	-0.366173	0.191640	-0.458592	-0.240336	0.088029	-0.372159	-0.182500	0.094179	-0.433018	-0.157299	0.079253	-0.422371	-0.257133	0.840438	-0.744574	-0.246075	0.782025	-0.739633	-0.177392	0.795693	-0.760338	-0.197113	0.854452	-0.763227	-0.245270	0.573043	-0.730826	-0.218882	0.552648	-0.609842	-0.327819	0.334174	-0.720408	-0.335262	0.296482	-0.711648	-0.277217	0.285324	-0.730445	-0.277104	0.328921	-0.737833	-0.374157	0.180497	-0.662537	-0.242077	0.078771	-0.740458	-0.189360	0.093212	-0.683631	-0.165925	0.080119	-0.692967	
258	1.2900	-0.270092	1.597695	-0.561977	-0.228372	1.581820	-0.743125	-0.244613	1.592074	-0.386882	-0.122852	1.537408	-0.564973	-0.138398	1.085576	-0.435366	-0.129724	1.086692	-0.682295	-0.205042	1.149240	-0.392329	-0.200044	1.156010	-0.724215	-0.305206	1.146818	-0.527197	-0.302700	1.146987	-0.590555	-0.302797	1.148061	-0.560803	-0.211177	0.860157	-0.355674	-0.203590	0.799293	-0.355521	-0.132980	0.816323	-0.359471	-0.147531	0.874215	-0.359666	-0.224176	0.592067	-0.380004	-0.188386	0.572977	-0.508172	-0.304888	0.356078	-0.382978	-0.320064	0.319260	-0.398109	-0.262864	0.299633	-0.388012	-0.250891	0.336866	-0.377110	-0.366154	0.192501	-0.458482	-0.240007	0.089507	-0.372065	-0.182217	0.095803	-0.433012	-0.156939	0.080936	-0.422407	-0.256471	0.841283	-0.745216	-0.245364	0.782877	-0.740108	-0.176524	0.796647	-0.760214	-0.196259	0.855366	-0.763320	-0.245289	0.574252	-0.730807	-0.218411	0.554008	-0.609921	-0.327968	0.335472	-0.719855	-0.335274	0.297929	-0.710941	-0.277395	0.286669	-0.730393	-0.277390	0.330279	-0.737717	-0.373873	0.181289	-0.662265	-0.241229	0.080729	-0.740758	-0.188528	0.095235	-0.683952	-0.164989	0.082263	-0.693364	
